HIERARCHY
ROOT mixamorig:Hips
{
	OFFSET 0.000000 10.034300 0.000000
	CHANNELS 6 Xposition Yposition Zposition Xrotation Yrotation Zrotation
	JOINT mixamorig:Spine
	{
		OFFSET -0.009801 0.704300 -0.140100
		CHANNELS 3 Xrotation Yrotation Zrotation
		JOINT mixamorig:Spine1
		{
			OFFSET -0.011947 0.821611 -0.163466
			CHANNELS 3 Xrotation Yrotation Zrotation
			JOINT mixamorig:Spine2
			{
				OFFSET -0.013653 0.938998 -0.186822
				CHANNELS 3 Xrotation Yrotation Zrotation
				JOINT mixamorig:Neck
				{
					OFFSET -0.015401 1.056399 -0.210201
					CHANNELS 3 Xrotation Yrotation Zrotation
					JOINT mixamorig:Head
					{
						OFFSET -0.000000 0.348500 0.040400
						CHANNELS 3 Xrotation Yrotation Zrotation
						JOINT mixamorig:HeadTop_End
						{
							OFFSET -0.000001 2.364800 0.273998
							CHANNELS 3 Xrotation Yrotation Zrotation
							End Site
							{
								OFFSET -0.000001 1.625792 -0.000001
							}
						}
						JOINT mixamorig:LeftEye
						{
							OFFSET 0.294400 0.805001 0.917099
							CHANNELS 3 Xrotation Yrotation Zrotation
							End Site
							{
								OFFSET -0.000001 1.625792 -0.000001
							}
						}
						JOINT mixamorig:RightEye
						{
							OFFSET -0.228300 0.805000 0.917099
							CHANNELS 3 Xrotation Yrotation Zrotation
							End Site
							{
								OFFSET -0.000001 1.625793 -0.000001
							}
						}
					}
				}
				JOINT mixamorig:LeftShoulder
				{
					OFFSET 0.498599 0.821400 -0.206301
					CHANNELS 3 Xrotation Yrotation Zrotation
					JOINT mixamorig:LeftArm
					{
						OFFSET 1.082862 -0.323582 0.007671
						CHANNELS 3 Xrotation Yrotation Zrotation
						JOINT mixamorig:LeftForeArm
						{
							OFFSET 1.878300 0.000000 0.000000
							CHANNELS 3 Xrotation Yrotation Zrotation
							JOINT mixamorig:LeftHand
							{
								OFFSET 2.627700 0.000000 0.000000
								CHANNELS 3 Xrotation Yrotation Zrotation
								JOINT mixamorig:LeftHandThumb1
								{
									OFFSET 0.243600 -0.065481 0.095713
									CHANNELS 3 Xrotation Yrotation Zrotation
									JOINT mixamorig:LeftHandThumb2
									{
										OFFSET 0.167236 -0.096554 0.096554
										CHANNELS 3 Xrotation Yrotation Zrotation
										JOINT mixamorig:LeftHandThumb3
										{
											OFFSET 0.200465 -0.115739 0.115738
											CHANNELS 3 Xrotation Yrotation Zrotation
											JOINT mixamorig:LeftHandThumb4
											{
												OFFSET 0.168321 -0.097179 0.097180
												CHANNELS 3 Xrotation Yrotation Zrotation
												End Site
												{
													OFFSET 0.168320 -0.097179 0.097180
												}
											}
										}
									}
								}
								JOINT mixamorig:LeftHandIndex1
								{
									OFFSET 0.796600 -0.041280 0.102508
									CHANNELS 3 Xrotation Yrotation Zrotation
									JOINT mixamorig:LeftHandIndex2
									{
										OFFSET 0.175700 0.000000 0.000000
										CHANNELS 3 Xrotation Yrotation Zrotation
										JOINT mixamorig:LeftHandIndex3
										{
											OFFSET 0.150900 0.000000 0.000000
											CHANNELS 3 Xrotation Yrotation Zrotation
											JOINT mixamorig:LeftHandIndex4
											{
												OFFSET 0.202400 0.000000 0.000000
												CHANNELS 3 Xrotation Yrotation Zrotation
												End Site
												{
													OFFSET 0.202400 0.000000 0.000000
												}
											}
										}
									}
								}
								JOINT mixamorig:LeftHandMiddle1
								{
									OFFSET 0.805001 0.000000 0.000000
									CHANNELS 3 Xrotation Yrotation Zrotation
									JOINT mixamorig:LeftHandMiddle2
									{
										OFFSET 0.204500 0.000000 0.000000
										CHANNELS 3 Xrotation Yrotation Zrotation
										JOINT mixamorig:LeftHandMiddle3
										{
											OFFSET 0.177500 0.000000 0.000000
											CHANNELS 3 Xrotation Yrotation Zrotation
											JOINT mixamorig:LeftHandMiddle4
											{
												OFFSET 0.249400 0.000000 0.000000
												CHANNELS 3 Xrotation Yrotation Zrotation
												End Site
												{
													OFFSET 0.249400 0.000000 0.000000
												}
											}
										}
									}
								}
								JOINT mixamorig:LeftHandRing1
								{
									OFFSET 0.758801 -0.016233 -0.167397
									CHANNELS 3 Xrotation Yrotation Zrotation
									JOINT mixamorig:LeftHandRing2
									{
										OFFSET 0.202000 0.000000 0.000000
										CHANNELS 3 Xrotation Yrotation Zrotation
										JOINT mixamorig:LeftHandRing3
										{
											OFFSET 0.161001 0.000000 0.000000
											CHANNELS 3 Xrotation Yrotation Zrotation
											JOINT mixamorig:LeftHandRing4
											{
												OFFSET 0.233300 0.000000 0.000000
												CHANNELS 3 Xrotation Yrotation Zrotation
												End Site
												{
													OFFSET 0.233300 0.000000 0.000000
												}
											}
										}
									}
								}
								JOINT mixamorig:LeftHandPinky1
								{
									OFFSET 0.698901 -0.028859 -0.296094
									CHANNELS 3 Xrotation Yrotation Zrotation
									JOINT mixamorig:LeftHandPinky2
									{
										OFFSET 0.162400 0.000000 0.000000
										CHANNELS 3 Xrotation Yrotation Zrotation
										JOINT mixamorig:LeftHandPinky3
										{
											OFFSET 0.132100 0.000000 0.000000
											CHANNELS 3 Xrotation Yrotation Zrotation
											JOINT mixamorig:LeftHandPinky4
											{
												OFFSET 0.190500 0.000000 0.000000
												CHANNELS 3 Xrotation Yrotation Zrotation
												End Site
												{
													OFFSET 0.190500 0.000000 0.000000
												}
											}
										}
									}
								}
							}
						}
					}
				}
				JOINT mixamorig:RightShoulder
				{
					OFFSET -0.511001 0.821400 -0.214000
					CHANNELS 3 Xrotation Yrotation Zrotation
					JOINT mixamorig:RightArm
					{
						OFFSET -1.048163 -0.323581 -0.007671
						CHANNELS 3 Xrotation Yrotation Zrotation
						JOINT mixamorig:RightForeArm
						{
							OFFSET -1.874700 0.000000 0.000000
							CHANNELS 3 Xrotation Yrotation Zrotation
							JOINT mixamorig:RightHand
							{
								OFFSET -2.602601 0.000000 0.000000
								CHANNELS 3 Xrotation Yrotation Zrotation
								JOINT mixamorig:RightHandThumb1
								{
									OFFSET -0.289492 -0.066646 0.113594
									CHANNELS 3 Xrotation Yrotation Zrotation
									JOINT mixamorig:RightHandThumb2
									{
										OFFSET -0.197135 -0.113816 0.113816
										CHANNELS 3 Xrotation Yrotation Zrotation
										JOINT mixamorig:RightHandThumb3
										{
											OFFSET -0.175369 -0.101250 0.101249
											CHANNELS 3 Xrotation Yrotation Zrotation
											JOINT mixamorig:RightHandThumb4
											{
												OFFSET -0.129590 -0.074818 0.074819
												CHANNELS 3 Xrotation Yrotation Zrotation
												End Site
												{
													OFFSET -0.129590 -0.074819 0.074819
												}
											}
										}
									}
								}
								JOINT mixamorig:RightHandIndex1
								{
									OFFSET -0.806096 -0.033512 0.141997
									CHANNELS 3 Xrotation Yrotation Zrotation
									JOINT mixamorig:RightHandIndex2
									{
										OFFSET -0.178800 0.000000 0.000000
										CHANNELS 3 Xrotation Yrotation Zrotation
										JOINT mixamorig:RightHandIndex3
										{
											OFFSET -0.142400 0.000000 0.000000
											CHANNELS 3 Xrotation Yrotation Zrotation
											JOINT mixamorig:RightHandIndex4
											{
												OFFSET -0.195501 0.000000 0.000000
												CHANNELS 3 Xrotation Yrotation Zrotation
												End Site
												{
													OFFSET -0.195500 0.000000 0.000000
												}
											}
										}
									}
								}
								JOINT mixamorig:RightHandMiddle1
								{
									OFFSET -0.805100 0.000000 0.000000
									CHANNELS 3 Xrotation Yrotation Zrotation
									JOINT mixamorig:RightHandMiddle2
									{
										OFFSET -0.194900 0.000000 0.000000
										CHANNELS 3 Xrotation Yrotation Zrotation
										JOINT mixamorig:RightHandMiddle3
										{
											OFFSET -0.175601 0.000000 0.000000
											CHANNELS 3 Xrotation Yrotation Zrotation
											JOINT mixamorig:RightHandMiddle4
											{
												OFFSET -0.241400 0.000000 0.000000
												CHANNELS 3 Xrotation Yrotation Zrotation
												End Site
												{
													OFFSET -0.241400 0.000000 0.000000
												}
											}
										}
									}
								}
								JOINT mixamorig:RightHandRing1
								{
									OFFSET -0.837599 -0.011590 -0.166501
									CHANNELS 3 Xrotation Yrotation Zrotation
									JOINT mixamorig:RightHandRing2
									{
										OFFSET -0.179400 0.000000 0.000000
										CHANNELS 3 Xrotation Yrotation Zrotation
										JOINT mixamorig:RightHandRing3
										{
											OFFSET -0.145899 0.000000 0.000000
											CHANNELS 3 Xrotation Yrotation Zrotation
											JOINT mixamorig:RightHandRing4
											{
												OFFSET -0.198400 0.000000 0.000000
												CHANNELS 3 Xrotation Yrotation Zrotation
												End Site
												{
													OFFSET -0.198400 0.000000 0.000000
												}
											}
										}
									}
								}
								JOINT mixamorig:RightHandPinky1
								{
									OFFSET -0.762397 -0.028970 -0.293202
									CHANNELS 3 Xrotation Yrotation Zrotation
									JOINT mixamorig:RightHandPinky2
									{
										OFFSET -0.142800 0.000000 0.000000
										CHANNELS 3 Xrotation Yrotation Zrotation
										JOINT mixamorig:RightHandPinky3
										{
											OFFSET -0.119099 0.000000 0.000000
											CHANNELS 3 Xrotation Yrotation Zrotation
											JOINT mixamorig:RightHandPinky4
											{
												OFFSET -0.167000 0.000000 0.000000
												CHANNELS 3 Xrotation Yrotation Zrotation
												End Site
												{
													OFFSET -0.167000 0.000000 0.000000
												}
											}
										}
									}
								}
							}
						}
					}
				}
				JOINT mixamorig:Sleeve1
				{
					OFFSET 1.326500 -0.111899 -0.202700
					CHANNELS 3 Xrotation Yrotation Zrotation
					JOINT mixamorig:Sleeve2
					{
						OFFSET 0.224567 -1.626975 0.000001
						CHANNELS 3 Xrotation Yrotation Zrotation
						End Site
						{
							OFFSET 0.224567 -1.626975 0.000001
						}
					}
				}
			}
		}
	}
	JOINT mixamorig:RightUpLeg
	{
		OFFSET -0.967499 -0.391902 -0.043000
		CHANNELS 3 Xrotation Yrotation Zrotation
		JOINT mixamorig:RightLeg
		{
			OFFSET -0.000000 -4.155837 -0.036891
			CHANNELS 3 Xrotation Yrotation Zrotation
			JOINT mixamorig:RightFoot
			{
				OFFSET -0.000000 -4.587847 -0.217521
				CHANNELS 3 Xrotation Yrotation Zrotation
				JOINT mixamorig:RightToeBase
				{
					OFFSET -0.142859 -0.827737 0.856996
					CHANNELS 3 Xrotation Yrotation Zrotation
					JOINT mixamorig:RightToe_End
					{
						OFFSET -0.040298 -0.004433 0.438128
						CHANNELS 3 Xrotation Yrotation Zrotation
						End Site
						{
							OFFSET -0.040298 -0.004433 0.438128
						}
					}
				}
			}
		}
	}
	JOINT mixamorig:LeftUpLeg
	{
		OFFSET 0.919501 -0.391898 -0.043000
		CHANNELS 3 Xrotation Yrotation Zrotation
		JOINT mixamorig:LeftLeg
		{
			OFFSET -0.000000 -4.155837 -0.036891
			CHANNELS 3 Xrotation Yrotation Zrotation
			JOINT mixamorig:LeftFoot
			{
				OFFSET -0.000000 -4.587847 -0.217521
				CHANNELS 3 Xrotation Yrotation Zrotation
				JOINT mixamorig:LeftToeBase
				{
					OFFSET 0.142859 -0.827739 0.856995
					CHANNELS 3 Xrotation Yrotation Zrotation
					JOINT mixamorig:LeftToe_End
					{
						OFFSET 0.040298 -0.004433 0.438128
						CHANNELS 3 Xrotation Yrotation Zrotation
						End Site
						{
							OFFSET 0.040298 -0.004433 0.438128
						}
					}
				}
			}
		}
	}
}
MOTION
Frames: 4
Frame Time: 0.033333
-1.523675 9.054708 2.342810 -177.615886 -8.116094 -181.396970 3.816193 0.316172 -0.196816 7.637944 0.552996 -0.993045 7.637944 0.552999 -0.993044 2.386115 -2.882357 5.071704 3.391904 -0.868782 -4.475148 0.000001 -0.000000 0.000000 -0.000000 -0.000001 0.000000 -0.000000 -0.000000 0.000000 0.545695 -9.210735 -19.194686 -70.768813 -63.962481 -60.671874 0.035958 -36.581090 0.085013 -62.896781 -5.907157 -6.858183 -7.461150 -3.018090 10.317954 -0.977767 0.161026 1.827104 0.000006 -0.000003 0.000006 -0.000003 -0.000000 -0.000003 2.078297 8.253758 0.561265 0.068935 0.766512 -17.024885 -0.000002 0.000002 -0.000002 0.000000 0.000002 -0.000002 -4.907638 8.206721 -4.261355 -0.089130 -0.372130 -10.727507 -0.000001 0.000002 -0.000007 -0.000001 0.000002 -0.000003 -10.815686 10.172876 -4.692118 -0.116483 -1.670705 -13.363703 0.000011 -0.000003 0.000007 0.000001 0.000001 -0.000001 -3.130818 6.193779 -10.676674 -0.520274 -5.482486 -22.807448 -0.000001 -0.000001 -0.000003 0.000003 -0.000002 -0.000005 -1.677456 10.760820 16.800315 -80.027510 67.692550 74.132811 0.038472 36.711536 -0.086877 -27.025867 12.363491 -29.176301 28.820181 6.808726 -14.431035 0.073700 -2.141536 -1.907846 -0.000009 -0.000004 0.000018 0.000006 0.000000 0.000002 -0.357723 9.014371 10.959005 0.968270 -3.387404 19.578503 -0.000007 -0.000003 0.000003 0.000002 -0.000001 -0.000003 -5.074838 6.363503 31.683475 -4.069272 3.010596 98.404783 -0.000001 -0.000005 -0.000002 -0.000001 -0.000005 -0.000002 -10.851460 5.502615 37.634848 -5.921590 6.645569 87.737919 -0.000001 0.000000 0.000001 -0.000003 -0.000000 -0.000002 -2.737732 5.172442 41.030169 -0.669528 11.545282 45.530847 0.000002 0.000000 0.000000 0.000002 0.000000 0.000000 -0.000000 -0.000000 0.000001 -0.000002 -0.000000 -0.000002 -38.520191 7.650802 -1.374456 53.521731 0.543084 1.914299 -19.652391 27.281871 18.748096 -0.451284 1.200951 -0.313205 -0.000000 -0.000002 -0.000001 -23.657523 8.805704 10.785364 53.433751 -0.499876 -1.919126 -27.174411 3.921495 -2.366016 -1.945213 -5.251221 1.865445 -0.000000 -0.000003 -0.000000 
-1.610559 9.005792 2.408021 -176.847763 -2.121638 -181.458005 3.707996 0.448736 -0.390187 7.422885 0.864689 -1.120632 7.422892 0.864691 -1.120632 3.431516 -2.565262 5.383055 3.590543 -0.219605 -5.789054 -0.000001 -0.000000 -0.000000 -0.000003 -0.000000 -0.000001 -0.000002 -0.000000 -0.000000 0.308609 -9.302913 -19.379250 -77.652660 -64.974886 -67.795782 0.023472 -31.633550 0.059940 -69.333913 -7.127763 -1.995297 -7.823423 -3.706167 10.394826 -1.009539 0.168641 1.870395 0.000008 -0.000001 0.000012 -0.000001 0.000005 -0.000001 1.740330 8.723957 0.993346 0.068011 0.764274 -16.879064 -0.000004 0.000000 -0.000001 -0.000001 0.000000 -0.000001 -5.065963 8.479219 -3.795998 -0.085869 -0.354737 -10.511342 -0.000001 0.000003 -0.000003 0.000001 0.000001 -0.000001 -11.237066 10.174310 -4.168203 -0.112398 -1.646245 -13.115309 0.000010 0.000001 0.000001 -0.000000 0.000002 -0.000005 -3.134162 5.702770 -10.173418 -0.510038 -5.458627 -22.584461 -0.000000 0.000003 0.000000 0.000001 0.000003 -0.000003 -1.388618 11.341239 16.455599 -87.677001 71.548199 80.526004 0.025653 30.586383 -0.059597 -32.864992 8.653262 -27.799684 28.820195 6.808734 -14.431037 0.073701 -2.141550 -1.907839 -0.000009 -0.000006 0.000021 0.000002 -0.000005 -0.000005 -0.357818 9.014922 10.945488 0.972337 -3.399992 19.564689 -0.000006 -0.000003 0.000004 0.000002 -0.000001 0.000001 -5.045832 6.466756 31.591787 -4.033890 3.015620 97.826901 0.000001 -0.000003 -0.000003 0.000001 -0.000003 -0.000003 -10.851459 5.502610 37.634851 -5.859209 6.642808 87.156929 0.000001 0.000000 0.000000 0.000001 0.000000 0.000000 -2.757211 5.195203 41.200903 -0.716334 11.590603 45.913218 -0.000007 -0.000000 0.000001 -0.000007 -0.000000 0.000001 -0.000001 0.000000 0.000001 0.000001 0.000000 -0.000002 -36.692640 10.560991 -3.947351 59.824343 0.653880 2.112667 -15.828361 22.703310 13.784412 -1.562314 2.336817 -0.800577 0.000000 -0.000001 0.000001 -22.871556 11.594288 10.621816 54.395036 -0.551076 -1.949630 -29.140924 6.359057 -1.047023 -2.441758 -4.736244 1.629446 0.000000 0.000001 -0.000000 
-1.659014 8.967528 2.444673 -176.294518 3.087395 -181.966416 3.539133 0.567285 -0.408606 7.084961 1.121610 -0.998729 7.084958 1.121609 -0.998730 4.709634 -2.205956 6.179990 3.320866 0.651243 -7.393395 0.000001 0.000000 -0.000000 -0.000000 0.000000 -0.000000 -0.000000 0.000000 -0.000000 0.109098 -9.365744 -19.454300 -83.890835 -65.227883 -75.992145 0.016688 -29.063859 0.044523 -65.383939 -10.180940 14.928664 -6.742808 -5.824608 10.833558 -1.308320 0.636063 0.038080 0.000014 -0.000002 0.000005 0.000000 0.000005 -0.000001 1.939849 9.060421 -2.744339 0.093426 0.820636 -20.604826 0.000001 0.000001 0.000002 0.000002 0.000000 0.000001 -4.891351 9.124200 -7.408470 -0.191817 -0.802796 -16.140277 -0.000001 0.000004 -0.000004 -0.000002 0.000000 0.000000 -11.488029 10.483220 -7.786746 -0.229998 -2.055813 -18.153405 0.000008 -0.000001 0.000003 -0.000002 0.000000 0.000000 -3.745164 5.095497 -13.312368 -0.725161 -5.914000 -26.913592 -0.000001 0.000003 0.000004 0.000001 -0.000001 0.000000 -1.206079 12.035222 16.510302 -94.602607 75.018549 86.397494 0.019027 25.640546 -0.036768 -38.266968 5.686705 -26.208155 28.820178 6.808742 -14.431039 0.073707 -2.141544 -1.907825 -0.000010 -0.000003 0.000018 0.000004 0.000001 -0.000000 -0.357905 9.015371 10.934365 0.975696 -3.410361 19.553329 -0.000007 0.000000 0.000008 0.000000 -0.000000 -0.000003 -5.026775 6.533966 31.532005 -4.010818 3.018693 97.450612 0.000001 0.000000 0.000004 0.000001 0.000000 0.000004 -10.851460 5.502613 37.634848 -5.818616 6.640677 86.778598 -0.000000 0.000003 -0.000002 0.000001 0.000001 -0.000001 -2.769974 5.210049 41.312078 -0.746881 11.619998 46.162250 -0.000001 0.000000 0.000001 -0.000001 0.000000 0.000001 -0.000001 -0.000000 0.000000 0.000001 0.000000 -0.000001 -32.834133 13.032615 -7.294910 62.843724 0.783295 2.208365 -12.596778 16.009931 8.841087 -2.685028 2.131680 -0.713379 0.000000 0.000001 -0.000000 -22.480391 12.312281 10.271342 55.727148 -0.599217 -1.991644 -30.990371 10.065976 0.050473 -2.759245 -4.032634 1.347869 -0.000000 -0.000001 -0.000000 
-1.659325 8.944982 2.478255 -176.008265 7.250729 -182.507108 3.353678 0.617001 -0.368336 6.712629 1.223859 -0.819147 6.712633 1.223861 -0.819144 6.058155 -1.896319 7.442896 2.699716 1.577208 -8.891312 -0.000000 0.000000 -0.000000 -0.000001 0.000000 0.000000 -0.000001 -0.000000 0.000000 -0.070220 -9.449763 -19.624257 -86.780818 -65.524320 -81.513561 0.012926 -29.573838 0.043407 -56.359135 -11.028339 36.285462 -3.971670 -9.535415 12.059845 -1.534391 1.667115 -4.072630 0.000010 -0.000003 0.000008 -0.000002 0.000003 -0.000001 2.788918 9.187252 -11.016379 0.161925 0.938047 -28.801873 0.000001 -0.000002 0.000003 0.000001 -0.000002 0.000003 -4.144760 10.155948 -15.405391 -0.575881 -1.738436 -28.530481 -0.000004 0.000001 -0.000002 0.000000 0.000003 -0.000003 -11.480348 11.147565 -15.845072 -0.613459 -2.914560 -29.245446 0.000009 0.000000 0.000007 -0.000001 0.000001 0.000000 -5.041063 4.542306 -20.290948 -1.316771 -6.850782 -36.456930 -0.000001 0.000002 -0.000002 -0.000000 -0.000001 -0.000003 -1.042872 12.562104 16.526247 -101.873398 78.138416 92.969147 0.016449 21.870385 -0.022906 -42.696394 2.978163 -24.823836 28.820171 6.808739 -14.431035 0.073713 -2.141543 -1.907844 -0.000013 -0.000003 0.000018 -0.000000 -0.000001 -0.000002 -0.357980 9.015669 10.926821 0.977984 -3.417406 19.545590 -0.000006 0.000001 0.000004 -0.000001 -0.000000 -0.000001 -5.019943 6.557949 31.510630 -4.002575 3.019764 97.316228 -0.000001 -0.000002 -0.000003 -0.000001 -0.000002 -0.000003 -10.851460 5.502614 37.634851 -5.804108 6.639851 86.643477 -0.000002 0.000001 -0.000002 -0.000000 -0.000002 -0.000003 -2.774544 5.215358 41.351775 -0.757818 11.630476 46.251200 -0.000000 0.000000 -0.000000 -0.000000 0.000000 -0.000000 0.000000 -0.000000 0.000000 0.000000 -0.000000 -0.000001 -27.795895 14.588861 -11.025051 62.484353 0.892911 2.204999 -10.747576 7.202846 5.077619 -2.870066 1.446104 -0.434260 -0.000002 0.000000 -0.000000 -22.319486 12.537673 10.163484 56.336828 -0.626629 -2.010982 -31.497370 13.218305 0.892334 -3.088354 -3.426881 1.104491 -0.000000 -0.000001 0.000000 
